<svg xmlns="http://www.w3.org/2000/svg" viewBox="0 0 32 32">
  <defs>
    <linearGradient id="case" x1="0" y1="0" x2="1" y2="1">
      <stop offset="0" stop-color="#e4e1db"/>
      <stop offset="1" stop-color="#a8a39b"/>
    </linearGradient>
  </defs>
  <rect x="9.2" y="0" width="13.6" height="5" rx="1.6" fill="#ff6d39"/>
  <rect x="9.2" y="27" width="13.6" height="5" rx="1.6" fill="#ff6d39"/>
  <rect x="4.6" y="4" width="22.8" height="24" rx="6.4" fill="url(#case)"/>
  <rect x="6.7" y="6.1" width="18.6" height="19.8" rx="4.8" fill="#0b0b12"/>
  <rect x="26.6" y="9.6" width="2.1" height="4.4" rx="0.7" fill="#e4e1db"/>
  <rect x="26.2" y="15.2" width="1.5" height="3.4" rx="0.5" fill="#a8a39b"/>
  <rect x="3.4" y="11.2" width="1.5" height="4.6" rx="0.5" fill="#ff6d39"/>
  <svg x="7.5" y="11.15" width="17" height="9.4" viewBox="0 0 256.24 141.59">
    <path fill="#5c59f3" d="M58.06 25.26C55.25 8.65 40.04-2.47 24.16.47 12.43 2.64 3.58 11.88.88 23.25c0 .02 0 .05-.02.07q-.15.63-.27 1.26c0 .05-.02.1-.03.15-.08.41-.15.82-.21 1.24 0 .05-.02.1-.02.15-.07.46-.12.93-.17 1.4v.1c-.05.42-.08.85-.1 1.27 0 .14-.02.27-.02.41-.01.33-.02.67-.02 1.01v.74c0 .18 0 .36.01.54.04 1.44.18 2.89.43 4.35 1.61 9.48 10.26 15.8 19.32 14.12 3.27-.61 6.15-2.17 8.42-4.37a6.48 6.48 0 0 1 7.08-1.28c2.84 1.23 6.04 1.66 9.29 1.06 8.7-1.61 14.62-10.01 13.66-19.07q-.06-.57-.15-1.14Zm70.08-20.84C96.06 4.42 76.12 15.75 76.12 34c0 21.27 20.42 50.3 52.02 50.3s52.02-29.36 52.02-50.3c0-18.52-19.45-29.58-52.02-29.58m128.1 24.87c0-.14-.01-.28-.02-.42-.02-.42-.05-.84-.09-1.25v-.1c-.06-.47-.11-.94-.18-1.4 0-.05-.02-.1-.02-.15-.06-.42-.13-.83-.21-1.24 0-.05-.02-.1-.03-.15q-.12-.63-.27-1.26c0-.02-.01-.05-.02-.07-2.71-11.37-11.56-20.61-23.28-22.78-15.88-2.94-31.09 8.18-33.91 24.79q-.09.57-.15 1.14c-.96 9.06 4.96 17.46 13.66 19.07 3.25.6 6.45.18 9.29-1.06 2.4-1.04 5.2-.55 7.07 1.28 2.27 2.2 5.15 3.77 8.42 4.37 9.07 1.68 17.71-4.64 19.32-14.12.25-1.46.38-2.91.43-4.35 0-.18.01-.36.01-.54v-.74c0-.34 0-.67-.02-1.01Zm-81.97 71.78c-8.42-3.79-19.75 2.68-29.32 4.25-5.63.97-11.21 1.47-16.81 1.52-5.59-.06-11.17-.56-16.81-1.52-9.57-1.57-20.89-8.04-29.32-4.25-4.27 1.94-5.59 6.66-3.85 12.3 1.19 3.86 3.5 7.42 6.42 10.28 6.08 5.99 13.86 10.52 21.03 13.38 7.29 2.94 14.9 4.51 22.52 4.56 7.62-.05 15.23-1.62 22.52-4.56 7.16-2.86 14.94-7.4 21.03-13.38 2.92-2.87 5.23-6.43 6.42-10.28 1.74-5.64.42-10.37-3.85-12.3Z"/>
  </svg>
</svg>
